<svg width="144" height="32" viewBox="0 0 144 32" fill="none" xmlns="http://www.w3.org/2000/svg">
<path d="M122 4H134C137.314 4 140 6.68629 140 10V22C140 25.3137 137.314 28 134 28H122C118.686 28 116 25.3137 116 22L116 10C116 6.68629 118.686 4 122 4L122 4Z" stroke="#1A1A1A" stroke-width="3" stroke-linecap="round" stroke-linejoin="round"/>
<path d="M132.8 15.244C133.104 17.2924 132.06 19.3046 130.21 20.2356C128.36 21.1666 126.122 20.8065 124.658 19.3422C123.194 17.878 122.834 15.6398 123.765 13.7901C124.696 11.9404 126.708 10.8963 128.756 11.2C130.848 11.5102 132.49 13.1525 132.8 15.244V15.244Z" stroke="#1A1A1A" stroke-width="3" stroke-linecap="round" stroke-linejoin="round"/>
<path d="M86 16C86 8.26613 79.7339 2 72 2C64.2661 2 58 8.26613 58 16C58 22.9876 63.1196 28.7795 69.8125 29.8306V20.047H66.256V16H69.8125V12.9155C69.8125 9.40702 71.9012 7.46903 75.1003 7.46903C76.6324 7.46903 78.2345 7.74226 78.2345 7.74226V11.1858H76.4687C74.73 11.1858 74.1875 12.2652 74.1875 13.3722V16H78.0702L77.4493 20.047H74.1875V29.8306C80.8804 28.7795 86 22.9876 86 16Z" fill="#1A1A1A"/>
<path d="M27.8396 9.82941C27.8578 10.0852 27.8578 10.3411 27.8578 10.5969C27.8578 18.3999 21.9188 27.3908 11.064 27.3908C7.71978 27.3908 4.61321 26.4223 2 24.7411C2.47514 24.7959 2.93195 24.8142 3.42537 24.8142C6.18472 24.8142 8.72486 23.8822 10.7533 22.2924C8.15836 22.2375 5.98374 20.5381 5.23449 18.199C5.6 18.2538 5.96546 18.2903 6.34925 18.2903C6.87918 18.2903 7.40917 18.2172 7.90254 18.0893C5.19798 17.5411 3.16949 15.1655 3.16949 12.2964V12.2234C3.95525 12.6619 4.86903 12.936 5.83749 12.9726C4.24764 11.9126 3.20606 10.1035 3.20606 8.05681C3.20606 6.96038 3.49839 5.95531 4.01009 5.07814C6.91569 8.65986 11.2832 10.9989 16.1806 11.2548C16.0893 10.8162 16.0344 10.3594 16.0344 9.90254C16.0344 6.64971 18.6659 4 21.937 4C23.6365 4 25.1715 4.71269 26.2497 5.86396C27.5836 5.60813 28.8628 5.11471 29.9958 4.43858C29.5572 5.80917 28.6253 6.96044 27.4009 7.69135C28.5888 7.56349 29.74 7.23449 30.7999 6.77768C29.996 7.94718 28.9908 8.98876 27.8396 9.82941V9.82941Z" fill="#1A1A1A"/>
</svg>
